<?xml version="1.0" encoding="UTF-8" standalone="no"?>
<!DOCTYPE svg PUBLIC "-//W3C//DTD SVG 1.1//EN"
 "http://www.w3.org/Graphics/SVG/1.1/DTD/svg11.dtd">
<!-- Generated by graphviz version 2.26.3 (20100126.1600)
 -->
<!-- Title: G Pages: 1 -->
<svg width="312pt" height="514pt"
 viewBox="0.00 0.00 312.00 514.00" xmlns="http://www.w3.org/2000/svg" xmlns:xlink="http://www.w3.org/1999/xlink">
<g id="graph1" class="graph" transform="scale(1 1) rotate(0) translate(4 510)">
<title>G</title>
<polygon fill="white" stroke="white" points="-4,5 -4,-510 309,-510 309,5 -4,5"/>
<g id="graph2" class="cluster"><title>cluster_Global</title>
<polyline fill="none" stroke="gray" points="192,-8 284,-8 "/>
<path fill="none" stroke="gray" d="M284,-8C290,-8 296,-14 296,-20"/>
<polyline fill="none" stroke="gray" points="296,-20 296,-486 "/>
<path fill="none" stroke="gray" d="M296,-486C296,-492 290,-498 284,-498"/>
<polyline fill="none" stroke="gray" points="284,-498 192,-498 "/>
<path fill="none" stroke="gray" d="M192,-498C186,-498 180,-492 180,-486"/>
<polyline fill="none" stroke="gray" points="180,-486 180,-20 "/>
<path fill="none" stroke="gray" d="M180,-20C180,-14 186,-8 192,-8"/>
<text text-anchor="middle" x="238" y="-484.1" font-family="Times Roman,serif" font-size="11.00" fill="gray">Global</text>
</g>
<g id="graph3" class="cluster"><title>cluster_\MapFile</title>
<polyline fill="none" stroke="gray" points="200,-16 276,-16 "/>
<path fill="none" stroke="gray" d="M276,-16C282,-16 288,-22 288,-28"/>
<polyline fill="none" stroke="gray" points="288,-28 288,-456 "/>
<path fill="none" stroke="gray" d="M288,-456C288,-462 282,-468 276,-468"/>
<polyline fill="none" stroke="gray" points="276,-468 200,-468 "/>
<path fill="none" stroke="gray" d="M200,-468C194,-468 188,-462 188,-456"/>
<polyline fill="none" stroke="gray" points="188,-456 188,-28 "/>
<path fill="none" stroke="gray" d="M188,-28C188,-22 194,-16 200,-16"/>
<text text-anchor="middle" x="238" y="-454.1" font-family="Times Roman,serif" font-size="11.00" fill="gray">MapFile</text>
</g>
<!-- \\MapFile\\LayerClass -->
<g id="node3" class="node"><title>\\MapFile\\LayerClass</title>
<polygon fill="none" stroke="black" points="280,-438 196,-438 196,-402 280,-402 280,-438"/>
<text text-anchor="middle" x="238" y="-416.6" font-family="Courier,monospace" font-size="11.00">LayerClass</text>
</g>
<!-- \\MapFile\\Style -->
<g id="node4" class="node"><title>\\MapFile\\Style</title>
<polygon fill="none" stroke="black" points="265,-384 211,-384 211,-348 265,-348 265,-384"/>
<text text-anchor="middle" x="238" y="-362.6" font-family="Courier,monospace" font-size="11.00">Style</text>
</g>
<!-- \\MapFile\\Label -->
<g id="node5" class="node"><title>\\MapFile\\Label</title>
<polygon fill="none" stroke="black" points="265,-330 211,-330 211,-294 265,-294 265,-330"/>
<text text-anchor="middle" x="238" y="-308.6" font-family="Courier,monospace" font-size="11.00">Label</text>
</g>
<!-- \\MapFile\\Exception -->
<g id="node6" class="node"><title>\\MapFile\\Exception</title>
<polygon fill="none" stroke="black" points="276,-276 200,-276 200,-240 276,-240 276,-276"/>
<text text-anchor="middle" x="238" y="-254.6" font-family="Courier,monospace" font-size="11.00">Exception</text>
</g>
<!-- \\Exception -->
<g id="node12" class="node"><title>\\Exception</title>
<ellipse fill="none" stroke="black" cx="62" cy="-258" rx="61.8445" ry="18"/>
<text text-anchor="middle" x="62" y="-253.9" font-family="Times Roman,serif" font-size="14.00" fill="gray">\Exception</text>
</g>
<!-- \\MapFile\\Exception&#45;&gt;\\Exception -->
<g id="edge4" class="edge"><title>\\MapFile\\Exception&#45;&gt;\\Exception</title>
<path fill="none" stroke="black" d="M199.376,-258C180.247,-258 156.515,-258 134.187,-258"/>
<polygon fill="none" stroke="black" points="134.049,-254.5 124.049,-258 134.049,-261.5 134.049,-254.5"/>
</g>
<!-- \\MapFile\\Map -->
<g id="node7" class="node"><title>\\MapFile\\Map</title>
<polygon fill="none" stroke="black" points="265,-222 211,-222 211,-186 265,-186 265,-222"/>
<text text-anchor="middle" x="238" y="-200.6" font-family="Courier,monospace" font-size="11.00">Map</text>
</g>
<!-- \\MapFile\\Legend -->
<g id="node8" class="node"><title>\\MapFile\\Legend</title>
<polygon fill="none" stroke="black" points="266,-168 210,-168 210,-132 266,-132 266,-168"/>
<text text-anchor="middle" x="238" y="-146.6" font-family="Courier,monospace" font-size="11.00">Legend</text>
</g>
<!-- \\MapFile\\Layer -->
<g id="node9" class="node"><title>\\MapFile\\Layer</title>
<polygon fill="none" stroke="black" points="265,-114 211,-114 211,-78 265,-78 265,-114"/>
<text text-anchor="middle" x="238" y="-92.6" font-family="Courier,monospace" font-size="11.00">Layer</text>
</g>
<!-- \\MapFile\\Scalebar -->
<g id="node10" class="node"><title>\\MapFile\\Scalebar</title>
<polygon fill="none" stroke="black" points="273,-60 203,-60 203,-24 273,-24 273,-60"/>
<text text-anchor="middle" x="238" y="-38.6" font-family="Courier,monospace" font-size="11.00">Scalebar</text>
</g>
</g>
</svg>
